<?xml version="1.0" encoding="UTF-8"?>
<svg id="Layer_1" data-name="Layer 1" xmlns="http://www.w3.org/2000/svg" viewBox="0 0 320 320">
  <defs>
    <style>
      .cls-1 {
        stroke-width: 0px;
      }
    </style>
  </defs>
  <path class="cls-1" d="m190.92,112.76c-10.2-20.51-20.26-40.74-30.33-60.97-.19-.03-.37-.07-.56-.1-10.18,20.23-20.36,40.47-30.64,60.89-.27-.52-.49-.9-.68-1.31-.81-1.72-1.62-3.44-2.41-5.17-.94-2.07-2.64-4.17-2.57-6.22.06-2.05,1.88-4.06,2.94-6.08,5.5-10.49,11.12-20.93,16.49-31.49,7.48-14.71,12.4-30.31,15.74-46.44.41-1.96.9-3.9,1.66-5.87.64,2.9,1.29,5.8,1.92,8.7,2.78,12.89,6.14,25.62,11.99,37.48,6.52,13.21,13.3,26.28,20.26,39.26,1.73,3.23,2.27,5.78.2,8.98-1.6,2.48-2.61,5.35-4.02,8.34Z"/>
  <path class="cls-1" d="m160.28,310c-1.35-4.82-3.18-9.47-3.18-14.56.03-49.82.02-99.65.03-149.47,0-3.59,0-7.19-.02-10.78,0-.89-.1-1.78-.53-2.76-1.08,1.71-2.16,3.42-3.35,5.32-1.71-2.98-3.33-5.79-4.91-8.61-.15-.28-.13-.74-.02-1.07,3.76-11.79,7.54-23.57,11.33-35.35.09-.29.31-.54.65-1.13.39.83.73,1.4.93,2.01,3.71,11.36,7.4,22.72,11.07,34.09.16.5.19,1.22-.05,1.65-1.59,2.78-3.28,5.5-5.11,8.53-1.11-1.89-2.12-3.62-3.14-5.36-.12,0-.24,0-.35,0-.05.74-.16,1.49-.16,2.23-.01,16.12-.01,32.24-.02,48.35,0,37.52,0,75.03,0,112.55,0,4.99-1.73,9.62-3.16,14.35Z"/>
</svg>